<svg id="visual" viewBox="0 0 3840 2160" width="3840" height="2160" xmlns="http://www.w3.org/2000/svg" xmlns:xlink="http://www.w3.org/1999/xlink" version="1.1"><rect x="0" y="0" width="3840" height="2160" fill="#ffffff"></rect><defs><linearGradient id="grad1_0" x1="43.8%" y1="0%" x2="100%" y2="100%"><stop offset="14.444444444444446%" stop-color="#ffffff" stop-opacity="1"></stop><stop offset="85.55555555555554%" stop-color="#ffffff" stop-opacity="1"></stop></linearGradient></defs><defs><linearGradient id="grad2_0" x1="0%" y1="0%" x2="56.3%" y2="100%"><stop offset="14.444444444444446%" stop-color="#ffffff" stop-opacity="1"></stop><stop offset="85.55555555555554%" stop-color="#ffffff" stop-opacity="1"></stop></linearGradient></defs><g transform="translate(3840, 0)"><path d="M0 1296C-228.8 1263.3 -457.6 1230.7 -648 1122.4C-838.4 1014.1 -990.5 830.2 -1092.1 630.5C-1193.7 430.8 -1244.8 215.4 -1296 0L0 0Z" fill="#1976d2"></path></g><g transform="translate(0, 2160)"><path d="M0 -1296C212.5 -1239.8 425 -1183.5 625 -1082.5C825 -981.6 1012.6 -835.9 1122.4 -648C1232.1 -460.1 1264.1 -230.1 1296 0L0 0Z" fill="#1976d2"></path></g></svg>